<?xml version="1.0" standalone="no"?>
<!DOCTYPE svg PUBLIC "-//W3C//DTD SVG 20010904//EN"
 "http://www.w3.org/TR/2001/REC-SVG-20010904/DTD/svg10.dtd">
<svg version="1.0" xmlns="http://www.w3.org/2000/svg"
 width="200.000000pt" height="200.000000pt" viewBox="0 0 200.000000 200.000000"
 preserveAspectRatio="xMidYMid meet">

<g transform="translate(0.000000,200.000000) scale(0.100000,-0.100000)"
    stroke="none">
<path d="M552 1768 c-87 -117 -147 -259 -158 -375 -4 -41 -17 -88 -32 -118
-19 -39 -26 -70 -29 -140 -5 -89 -5 -91 -58 -170 -30 -44 -57 -93 -61 -110 -6
-29 -5 -28 25 13 17 23 33 42 35 42 1 0 -10 -25 -26 -56 -15 -31 -28 -66 -27
-78 0 -20 1 -20 10 2 9 24 49 80 49 69 0 -3 -9 -21 -19 -39 -10 -18 -22 -44
-26 -57 -6 -21 -4 -20 24 10 l31 34 -20 -40 c-27 -53 -26 -78 1 -45 17 20 19
21 14 5 -5 -11 -10 -33 -12 -50 l-4 -30 20 25 21 25 -10 -28 c-5 -16 -10 -38
-10 -50 0 -19 3 -17 21 12 21 35 38 37 20 3 -6 -12 -11 -38 -11 -59 l0 -38 19
29 c11 17 18 33 15 38 -3 4 17 30 45 58 41 41 45 47 21 35 -40 -21 -38 -2 2
24 36 23 34 26 -6 11 -36 -13 -33 -4 6 21 32 20 32 21 6 15 -16 -4 -28 -4 -28
-2 0 3 12 12 28 20 23 13 24 15 7 16 -17 0 -18 2 -5 11 12 8 9 9 -12 5 -38 -9
-35 2 5 19 l32 14 -30 1 -30 2 30 13 c30 14 30 14 5 16 -21 1 -18 3 15 15 l40
14 -42 -3 c-46 -3 -48 8 -3 18 49 11 43 23 -8 17 -62 -6 -51 4 24 22 l59 14
-45 2 -45 2 40 10 c22 5 72 7 111 5 56 -4 85 -13 140 -42 38 -20 85 -50 104
-66 33 -28 32 -28 -21 5 -72 44 -113 61 -173 70 -33 5 -46 4 -41 -3 3 -6 14
-11 23 -11 9 -1 33 -10 52 -20 l35 -20 -30 6 c-19 3 -10 -4 25 -19 57 -25 201
-107 188 -107 -4 0 -51 23 -103 50 -66 35 -107 50 -133 50 l-37 -1 53 -18 c30
-10 61 -26 70 -36 16 -16 16 -17 -8 -5 -33 17 -19 3 27 -27 21 -14 30 -22 21
-19 -49 16 -48 14 2 -11 75 -37 176 -36 314 1 81 22 104 25 124 16 14 -6 27
-8 30 -5 19 19 -5 324 -34 433 -4 12 -4 22 0 22 3 0 10 -15 15 -32 8 -29 9
-30 10 -8 1 34 -33 96 -77 143 -46 48 -34 48 19 0 43 -39 68 -79 80 -128 6
-27 7 -26 8 14 1 46 -39 131 -61 131 -6 0 -9 3 -5 6 18 18 116 -69 142 -126
l16 -35 -6 35 c-3 19 -15 44 -27 57 -12 13 -19 25 -16 28 10 11 60 -55 84
-111 14 -33 23 -45 19 -29 -4 22 -3 26 4 15 6 -8 14 -35 18 -60 l8 -45 6 45 6
45 1 -50 c1 -28 -7 -82 -18 -120 -21 -73 -27 -199 -10 -210 15 -9 48 12 55 36
4 12 1 32 -6 45 -14 26 -8 39 14 31 38 -15 20 -123 -23 -134 -27 -7 -26 -14
15 -63 49 -58 54 -97 21 -165 -45 -91 -191 -175 -305 -175 -55 0 -138 -82
-129 -127 2 -13 9 -9 25 19 25 43 87 78 137 78 48 0 135 34 186 73 24 18 49
36 56 42 9 6 20 3 36 -10 l23 -20 -18 22 c-14 16 -16 26 -8 40 26 46 26 46 70
24 22 -12 41 -19 41 -16 0 2 -18 14 -40 25 -38 20 -53 40 -28 40 6 0 9 3 6 6
-3 3 1 29 8 57 8 29 14 92 13 142 -1 125 8 274 20 313 5 17 7 32 4 32 -2 0 7
14 21 31 37 43 166 306 173 351 8 54 -13 57 -100 18 -116 -52 -235 -89 -327
-101 -70 -10 -103 -9 -188 5 -56 9 -122 16 -145 16 -23 0 -52 7 -64 15 -12 9
-62 70 -110 138 -114 159 -191 237 -232 237 -25 0 -37 -9 -69 -52z m123 -18
c10 -11 14 -20 10 -20 -5 0 0 -7 11 -16 18 -15 18 -15 -3 -9 -34 9 -28 -3 10
-19 l32 -14 -40 4 -40 4 40 -14 40 -14 -50 -2 -50 -2 44 -9 c62 -12 63 -19 0
-20 l-54 -1 58 -13 c32 -7 61 -15 64 -19 3 -3 -27 -7 -68 -7 l-74 -1 55 -9
c30 -4 66 -12 80 -18 20 -8 10 -10 -55 -12 l-80 -2 66 -7 c37 -5 86 -17 110
-28 l44 -21 -67 6 c-36 3 -83 2 -105 -3 -37 -7 -37 -8 28 -15 62 -7 168 -43
157 -54 -2 -3 -20 0 -39 5 -42 12 -142 13 -135 1 3 -4 25 -11 49 -14 49 -7
122 -37 152 -62 l20 -17 -20 8 c-29 10 -139 34 -142 30 -2 -2 27 -13 64 -25
38 -12 97 -39 133 -61 66 -38 166 -134 189 -180 8 -15 -1 -8 -20 15 -79 96
-171 167 -234 180 -27 6 -28 5 -10 -6 23 -15 30 -20 70 -54 l30 -26 -38 22
c-21 12 -40 19 -43 16 -3 -3 8 -13 26 -22 18 -9 30 -19 27 -22 -3 -2 -14 0
-25 6 -37 20 -48 11 -12 -10 l35 -20 -58 4 c-32 2 -52 0 -45 -4 7 -5 21 -9 31
-9 18 0 24 -16 7 -22 -5 -1 19 -3 53 -4 45 0 79 -8 120 -27 31 -14 57 -28 57
-31 0 -3 -21 5 -47 16 -34 15 -79 24 -153 29 -58 3 -114 10 -125 13 -11 4 -4
-2 15 -14 l35 -21 -54 4 c-50 4 -53 3 -35 -10 17 -14 16 -15 -21 -8 -36 6 -38
5 -21 -7 16 -13 12 -14 -35 -8 -30 3 -64 11 -76 18 -38 21 -91 92 -102 137
-37 148 20 386 120 500 35 40 67 45 94 15z m1090 -251 c9 -13 -33 -59 -54 -60
-14 0 -14 -1 -1 -7 10 -4 2 -10 -25 -19 -27 -9 -31 -12 -12 -9 37 5 26 -5 -31
-27 -34 -12 -38 -16 -17 -13 17 3 39 8 50 12 14 5 17 4 10 -4 -5 -6 -44 -22
-85 -36 -41 -14 -66 -26 -54 -26 11 0 46 9 77 19 32 11 57 18 57 15 0 -3 -42
-25 -92 -49 -97 -47 -99 -60 -3 -24 31 12 58 19 61 17 2 -3 -23 -20 -56 -38
-34 -19 -67 -42 -76 -51 -14 -15 -19 -12 -71 42 -34 35 -53 63 -47 68 5 5 47
30 94 57 47 26 121 69 165 95 84 51 100 56 110 38z m-196 -318 c-34 -33 -44
-39 -56 -29 -11 9 -12 14 -1 24 14 14 91 54 96 50 1 -2 -16 -22 -39 -45z
m-361 -46 c0 -16 -2 -15 -8 5 -11 34 -11 60 0 35 5 -11 8 -29 8 -40z m381 22
c-46 -38 -76 -103 -33 -69 5 4 -2 -3 -16 -15 -35 -31 -48 -12 -20 29 26 37 70
77 85 78 6 0 -2 -10 -16 -23z m-1032 -73 c-3 -3 -12 -4 -19 -1 -8 3 -5 6 6 6
11 1 17 -2 13 -5z m51 -31 c-21 -2 -57 -2 -80 0 -24 2 -7 4 37 4 44 0 63 -2
43 -4z m-5 -30 c-23 -2 -64 -2 -90 0 -26 2 -7 3 42 3 50 0 71 -1 48 -3z m383
-18 c-36 -19 -45 -19 -20 0 10 8 26 14 34 15 8 0 2 -7 -14 -15z m74 -25 c0
-28 -21 -36 -37 -14 -14 19 -14 19 -29 0 -8 -11 -14 -15 -14 -10 0 15 23 41
40 46 23 8 40 -2 40 -22z m-71 -104 c19 -23 74 -20 96 4 10 11 21 37 25 58 l7
37 13 -27 c43 -90 -84 -162 -158 -88 -39 39 -48 76 -25 102 18 20 18 19 23
-25 3 -24 12 -52 19 -61z m186 -10 c6 -43 5 -48 -10 -42 -9 3 -23 6 -31 6 -13
0 -13 3 0 22 9 12 16 36 16 52 0 45 17 19 25 -38z m345 -61 c-11 -32 -45 -63
-57 -52 -2 3 5 10 16 16 11 6 26 30 33 53 6 22 14 36 16 30 2 -7 -2 -28 -8
-47z"/>
<path d="M600 1283 c30 -35 56 -63 57 -63 13 0 -38 64 -77 96 -26 22 -21 13
20 -33z"/>
<path d="M556 1279 c22 -24 50 -57 62 -73 13 -17 22 -23 22 -14 0 25 -55 92
-91 112 l-34 19 41 -44z"/>
<path d="M512 1226 c6 -52 29 -89 68 -115 25 -15 25 -15 8 5 -10 11 -18 24
-18 29 0 4 8 1 18 -7 32 -27 47 -32 25 -6 -13 13 -23 31 -23 39 1 10 5 9 15
-5 8 -11 17 -17 20 -14 8 8 -54 81 -87 102 l-31 20 5 -48z"/>
<path d="M1330 711 c-8 -6 -18 -7 -22 -5 -23 14 -3 -20 27 -47 42 -38 45 -71
10 -103 -24 -22 -85 -46 -121 -46 -17 -1 -17 -2 -3 -10 11 -7 34 -4 70 6 49
15 55 15 81 -1 33 -19 33 -18 12 23 -14 29 -14 35 2 67 9 19 22 35 30 35 21 0
47 46 39 70 -5 17 -15 20 -58 20 -29 0 -59 -4 -67 -9z m85 -11 c25 -6 21 -8
-22 -7 -28 1 -49 5 -47 9 6 9 27 9 69 -2z"/>
<path d="M745 644 c-167 -26 -328 -95 -420 -180 -28 -25 -33 -32 -13 -16 103
84 273 158 423 182 39 7 124 15 190 19 l120 8 -105 1 c-58 0 -145 -6 -195 -14z"/>
<path d="M374 605 c-10 -8 -14 -15 -8 -15 6 0 17 7 24 15 16 19 9 19 -16 0z"/>
<path d="M930 604 c-205 -31 -383 -97 -471 -175 l-34 -30 45 29 c121 79 259
129 445 161 90 16 102 28 15 15z"/>
<path d="M1048 583 c7 -3 16 -2 19 1 4 3 -2 6 -13 5 -11 0 -14 -3 -6 -6z"/>
<path d="M898 546 c-54 -18 -123 -48 -154 -67 -67 -40 -162 -131 -187 -180
-15 -29 -16 -31 -1 -9 33 47 141 145 198 179 32 19 108 52 169 73 62 21 103
38 92 38 -11 0 -64 -15 -117 -34z"/>
<path d="M963 511 c-85 -43 -187 -128 -217 -182 -18 -33 -17 -33 15 6 67 79
157 147 252 190 29 13 47 24 41 24 -7 1 -47 -17 -91 -38z"/>
<path d="M1650 530 c8 -5 20 -10 25 -10 6 0 3 5 -5 10 -8 5 -19 10 -25 10 -5
0 -3 -5 5 -10z"/>
<path d="M1560 487 c0 -3 12 -12 26 -22 15 -9 23 -12 20 -6 -7 11 -46 35 -46
28z"/>
<path d="M1640 476 c0 -3 9 -10 20 -16 11 -6 20 -8 20 -6 0 3 -9 10 -20 16
-11 6 -20 8 -20 6z"/>
<path d="M984 438 l-19 -23 23 19 c21 18 27 26 19 26 -2 0 -12 -10 -23 -22z"/>
<path d="M1640 425 c13 -14 26 -25 28 -25 3 0 -5 11 -18 25 -13 14 -26 25 -28
25 -3 0 5 -11 18 -25z"/>
</g>
</svg>
