<svg version="1.1" id="Layer_1" xmlns="http://www.w3.org/2000/svg" xmlns:xlink="http://www.w3.org/1999/xlink" x="0px" y="0px"
	 width="100%" viewBox="0 0 537 192" enable-background="new 0 0 537 192" xml:space="preserve">

<path fill="#0E0E0E" opacity="1.000000" stroke="none" 
	d="
M191.004044,53.995930 
	C189.654129,52.980282 188.304199,51.964634 186.268311,50.432869 
	C186.578445,52.882946 186.857559,55.087811 187.174286,57.589954 
	C185.740387,57.955517 184.194275,58.349682 183.150940,58.615665 
	C179.793198,54.695713 176.778091,51.062263 173.635376,47.542763 
	C171.122818,44.728977 165.190506,44.456985 165.905609,39.280724 
	C166.366470,38.934628 166.827347,38.588535 167.288208,38.242439 
	C168.144592,39.306484 169.000961,40.370525 169.550720,41.053596 
	C170.699051,40.442596 171.992783,39.179836 172.736816,39.447144 
	C180.226181,42.137814 187.419312,45.349007 190.995667,53.630116 
	C191.000000,54.000000 191.004044,53.995930 191.004044,53.995930 
z"/>
<path fill="#0A0A0A" opacity="1.000000" stroke="none" 
	d="
M316.008789,69.988403 
	C321.843719,71.427406 324.649536,76.196709 328.008240,80.481758 
	C323.516266,83.371513 323.249939,89.094604 327.687469,95.643906 
	C323.712708,98.813240 319.773529,102.177101 315.552826,105.139778 
	C314.661865,105.765167 312.739410,104.921028 311.292236,104.753998 
	C312.116638,103.560448 312.835754,102.274757 313.784943,101.190422 
	C316.776947,97.772285 322.263031,96.389359 322.643402,90.647514 
	C320.012054,88.500488 314.435547,91.968925 314.215973,85.111977 
	C316.737915,86.061615 318.902313,86.876617 321.142822,87.720276 
	C321.651550,85.396927 322.111542,83.296371 322.306244,82.407181 
	C319.923706,77.992058 317.973450,74.378029 316.011505,70.382034 
	C315.999817,70.000076 316.008789,69.988403 316.008789,69.988403 
z"/>
<path fill="#0C0C0C" opacity="1.000000" stroke="none" 
	d="
M423.822906,97.778526 
	C423.204773,94.189796 422.349152,90.937065 417.637054,90.816147 
	C416.761414,90.793678 415.923004,89.320930 415.440948,88.868279 
	C419.100739,84.826172 422.269318,81.326584 425.437897,77.826988 
	C425.905853,78.191963 426.373840,78.556938 426.841827,78.921906 
	C426.312134,80.162315 425.782440,81.402718 425.122803,82.947403 
	C433.098145,87.938606 426.273590,92.705521 424.374603,97.821571 
	C424.023743,97.982307 423.822906,97.778526 423.822906,97.778526 
z"/>
<path fill="#2F2F2F" opacity="1.000000" stroke="none" 
	d="
M351.006287,94.007721 
	C351.052368,95.181137 351.098480,96.354546 351.144592,97.527962 
	C350.021881,97.188202 348.393738,97.193504 347.878662,96.438972 
	C346.699188,94.711044 345.009430,91.166267 345.377411,90.898033 
	C347.792999,89.137291 347.429047,84.215919 352.289276,85.006142 
	C353.712189,85.237495 355.526611,83.060684 357.576508,82.414680 
	C357.929871,85.249123 357.868317,87.656509 357.806763,90.063889 
	C355.893127,90.457916 354.905182,94.543571 352.126648,91.488136 
	C351.752167,92.098007 351.377686,92.707870 350.846313,93.698181 
	C350.645905,94.179375 350.602356,94.280128 350.558807,94.380867 
	C350.707947,94.256477 350.857086,94.132095 351.006287,94.007721 
z"/>
<path fill="#272727" opacity="1.000000" stroke="none" 
	d="
M238.949341,69.997147 
	C240.252899,68.655678 241.440704,67.649193 242.658432,66.617355 
	C245.053223,69.436562 247.223404,71.991348 249.644104,74.841057 
	C246.457993,77.153976 243.304840,79.442963 240.117645,81.756660 
	C235.830887,76.974548 235.375885,73.588692 238.949341,69.997147 
z"/>
<path fill="#0A0A0A" opacity="1.000000" stroke="none" 
	d="
M311.007751,71.979431 
	C311.537018,74.054649 312.066620,75.746094 312.699127,77.766159 
	C309.372223,79.072380 307.598755,78.487282 306.825531,74.710838 
	C306.018188,70.767769 304.585693,66.952690 303.226105,62.412418 
	C306.562836,63.874275 309.506592,65.163963 312.635162,66.534622 
	C312.071838,68.286858 311.539978,69.941254 311.007751,71.979431 
z"/>
<path fill="#212121" opacity="1.000000" stroke="none" 
	d="
M139.397827,54.477959 
	C137.484909,55.579494 135.821487,56.417301 133.344040,57.665092 
	C135.325943,48.981133 140.933578,45.654778 146.515778,42.303364 
	C146.943481,42.631607 147.371201,42.959846 147.798904,43.288090 
	C145.081711,46.930138 142.364517,50.572182 139.397827,54.477959 
z"/>
<path fill="#0C0C0C" opacity="1.000000" stroke="none" 
	d="
M418.119415,70.846252 
	C420.257568,72.502815 422.395691,74.159370 424.264618,75.607368 
	C422.088562,76.985588 420.125183,78.229095 417.102936,80.143265 
	C416.322632,79.906998 414.240570,79.276581 412.698212,78.809570 
	C413.489685,76.242760 414.121033,74.195145 414.931519,71.566666 
	C414.952850,71.566666 416.186462,71.566666 417.704224,71.278183 
	C417.988342,70.989708 418.119415,70.846260 418.119415,70.846252 
z"/>
<path fill="#0A0A0A" opacity="1.000000" stroke="none" 
	d="
M284.998779,45.998268 
	C287.757782,49.556396 290.516754,53.114525 293.692780,57.210491 
	C288.353149,58.269897 287.305725,48.633896 281.673340,55.268066 
	C280.889648,51.045391 280.861420,48.079731 284.634033,46.052799 
	C285.000000,46.000000 284.998779,45.998268 284.998779,45.998268 
z"/>
<path fill="#101010" opacity="1.000000" stroke="none" 
	d="
M310.456451,38.202698 
	C314.826447,39.747116 318.838074,41.392563 323.078003,43.131641 
	C319.455444,48.113972 317.691406,48.021523 315.051819,44.055386 
	C314.345520,42.994160 312.619965,42.657715 311.722534,41.663414 
	C310.922424,40.776951 310.620087,39.441208 310.456451,38.202698 
z"/>
<path fill="#1A1A1A" opacity="1.000000" stroke="none" 
	d="
M211.973907,84.757874 
	C213.035843,82.777603 214.119202,81.113884 214.582886,79.292412 
	C215.064667,77.399918 214.947235,75.354881 215.125488,72.916290 
	C220.406174,76.920769 220.587418,78.363503 217.179626,82.481415 
	C216.163849,83.708885 215.504776,85.227509 214.521240,86.486977 
	C213.729034,87.501442 212.694183,88.326424 211.766998,89.235474 
	C211.752350,87.825356 211.737686,86.415237 211.973907,84.757874 
z"/>
<path fill="#0E0E0E" opacity="1.000000" stroke="none" 
	d="
M188.664612,88.253204 
	C186.991791,83.683647 189.765320,80.035423 194.630005,80.682816 
	C194.486450,83.860458 194.343124,87.032700 194.216354,89.838860 
	C191.887054,89.062965 190.404968,88.569290 188.664612,88.253204 
z"/>
<path fill="#AEAEAE" opacity="1.000000" stroke="none" 
	d="
M357.888794,90.459770 
	C357.868317,87.656509 357.929871,85.249123 357.924194,82.395187 
	C357.856903,71.191612 357.856903,60.434601 357.856903,49.677589 
	C358.293213,49.677906 358.729523,49.678219 359.165833,49.678535 
	C359.165833,64.831749 359.165833,79.984962 359.165833,95.138176 
	C358.767487,95.156448 358.369171,95.174721 357.970825,95.192993 
	C357.970825,93.747215 357.970825,92.301430 357.888794,90.459770 
z"/>
<path fill="#0C0C0C" opacity="1.000000" stroke="none" 
	d="
M418.998688,44.998337 
	C419.771210,45.523705 420.489014,46.174564 421.330566,46.541592 
	C422.307770,46.967747 423.393555,47.144901 425.573303,47.743507 
	C423.255859,48.918266 422.205719,49.450600 420.912109,50.106350 
	C421.592590,51.218983 422.332581,51.978073 422.511749,52.852131 
	C422.681549,53.680534 422.422974,55.312984 422.073364,55.394585 
	C421.103821,55.620888 419.183044,55.458351 419.059631,55.034996 
	C418.136139,51.867970 417.553619,48.601234 416.928497,45.353371 
	C416.924133,45.330570 417.816162,45.135242 418.644836,45.010239 
	C419.000000,45.000000 418.998688,44.998337 418.998688,44.998337 
z"/>
<path fill="#0E0E0E" opacity="1.000000" stroke="none" 
	d="
M182.466797,101.558784 
	C181.388229,101.760956 180.604538,101.760956 178.251724,101.760956 
	C182.577499,97.742493 185.914047,94.642990 190.106186,90.748672 
	C190.357559,95.909233 189.589539,96.820297 182.466797,101.558784 
z"/>
<path fill="#0C0C0C" opacity="1.000000" stroke="none" 
	d="
M424.135986,98.070984 
	C421.958771,103.964417 415.951477,103.078621 411.584381,105.785172 
	C411.699188,102.673668 415.745148,99.352638 418.403503,99.237976 
	C420.012695,99.168564 421.594482,98.464905 423.505737,97.912369 
	C423.822906,97.778526 424.023743,97.982307 424.135986,98.070984 
z"/>
<path fill="#0C0C0C" opacity="1.000000" stroke="none" 
	d="
M419.001221,45.000832 
	C415.355774,43.654331 411.709106,42.306999 408.012604,40.941261 
	C411.838470,38.079948 417.822784,39.065926 420.228149,42.989750 
	C420.454865,43.359554 419.841125,44.244564 419.308136,44.944359 
	C418.998688,44.998337 419.000000,45.000000 419.001221,45.000832 
z"/>
<path fill="#101010" opacity="1.000000" stroke="none" 
	d="
M324.322266,47.626785 
	C325.675232,49.515160 326.696533,51.476875 327.717804,53.438591 
	C327.266541,53.932327 326.815247,54.426064 326.363983,54.919796 
	C324.067108,54.283829 321.770264,53.647858 320.695679,53.350319 
	C321.976166,51.154472 322.983368,49.427303 324.322266,47.626785 
z"/>
<path fill="#0E0E0E" opacity="1.000000" stroke="none" 
	d="
M190.997986,54.001862 
	C192.540070,56.177765 194.084167,58.351803 195.628265,60.525837 
	C193.805084,61.463093 191.981903,62.400352 189.163071,63.849464 
	C189.986511,59.802853 190.495972,57.299221 191.004730,54.395760 
	C191.004044,53.995930 191.000000,54.000000 190.997986,54.001862 
z"/>
<path fill="#1A1A1A" opacity="1.000000" stroke="none" 
	d="
M220.998169,58.998657 
	C222.676865,54.972202 224.355545,50.945744 226.497314,46.957191 
	C226.960388,46.995094 227.162964,47.242031 227.162964,47.242031 
	C225.975098,51.020683 224.836868,54.816711 223.528702,58.553246 
	C223.385239,58.963028 222.265625,59.031052 221.299377,59.128792 
	C221.000000,59.000000 220.998169,58.998657 220.998169,58.998657 
z"/>
<path fill="#0C0C0C" opacity="1.000000" stroke="none" 
	d="
M388.847656,53.144825 
	C386.959595,50.363472 385.071503,47.582119 382.751617,44.164650 
	C385.357635,44.164650 387.267212,44.164650 389.553040,44.051773 
	C389.929291,43.938892 390.124054,44.072643 390.124084,44.072647 
	C389.779297,46.737041 389.434540,49.401440 389.047974,52.526497 
	C389.006165,52.987156 388.847656,53.144825 388.847656,53.144825 
z"/>
<path fill="#101010" opacity="1.000000" stroke="none" 
	d="
M346.625488,84.634354 
	C346.267242,85.526474 346.019989,86.117638 345.338104,87.747971 
	C345.338104,81.613365 345.338104,76.527000 345.338104,71.440628 
	C346.405487,75.644363 347.563232,79.865799 346.625488,84.634354 
z"/>
<path fill="#0C0C0C" opacity="1.000000" stroke="none" 
	d="
M406.997559,75.997864 
	C406.886597,75.182968 406.990326,74.246666 406.614258,73.581688 
	C406.052399,72.588150 405.152802,71.785622 404.396851,70.901825 
	C406.412323,71.186096 408.427795,71.470367 410.443237,71.754654 
	C409.855804,73.034149 409.298096,74.329018 408.651794,75.578064 
	C408.543640,75.787086 408.051300,75.797340 407.368256,75.949722 
	C407.000000,76.000000 406.997559,75.997864 406.997559,75.997864 
z"/>
<path fill="#1A1A1A" opacity="1.000000" stroke="none" 
	d="
M220.937592,67.139977 
	C220.389343,68.808800 219.825989,70.122856 219.262634,71.436905 
	C218.820847,71.442551 218.379074,71.448196 217.937302,71.453842 
	C217.787628,69.782211 217.637970,68.110580 217.488312,66.438950 
	C218.633041,66.554367 219.777756,66.669785 220.937592,67.139977 
z"/>
<path fill="#0E0E0E" opacity="1.000000" stroke="none" 
	d="
M193.337585,70.092415 
	C194.261566,69.040398 195.479019,68.172119 196.696457,67.303841 
	C197.054520,68.073593 197.412582,68.843338 197.770660,69.613083 
	C196.390793,69.834106 195.010910,70.055130 193.337585,70.092415 
z"/>
<path fill="#0E0E0E" opacity="1.000000" stroke="none" 
	d="
M185.996429,63.711922 
	C187.516708,64.782814 188.728897,65.820450 190.232269,67.107338 
	C189.137817,68.263275 188.258591,69.191887 186.953323,70.570488 
	C186.471939,67.947937 186.080124,65.813293 185.996429,63.711922 
z"/>
<path fill="#0E0E0E" opacity="1.000000" stroke="none" 
	d="
M284.534088,91.546295 
	C285.818573,92.056290 286.881226,92.792343 287.943909,93.528404 
	C283.968475,94.428413 283.968475,94.428413 284.534088,91.546295 
z"/>
<path fill="#0A0A0A" opacity="1.000000" stroke="none" 
	d="
M297.845459,77.142853 
	C296.955902,76.619041 296.066376,76.095230 295.176819,75.571419 
	C296.000549,74.418327 296.824280,73.265236 297.648010,72.112144 
	C298.018097,72.289818 298.388184,72.467484 298.758270,72.645149 
	C298.565033,73.818367 298.371826,74.991585 298.088135,76.580002 
	C297.997711,76.995209 297.845459,77.142845 297.845459,77.142853 
z"/>
<path fill="#0C0C0C" opacity="1.000000" stroke="none" 
	d="
M400.107117,38.369316 
	C401.223267,37.994621 402.393829,37.874866 403.564392,37.755116 
	C403.610901,38.383587 403.657410,39.012058 403.703918,39.640533 
	C402.366364,39.887043 401.028778,40.133556 399.691223,40.380062 
	C399.847992,39.794792 400.004761,39.209526 400.107117,38.369316 
z"/>
<path fill="#0C0C0C" opacity="1.000000" stroke="none" 
	d="
M396.374451,72.994003 
	C397.201233,72.468765 398.031189,72.253792 398.861145,72.038818 
	C398.894318,72.756432 398.927460,73.474045 398.960632,74.191650 
	C398.099609,73.895859 397.238617,73.600060 396.374451,72.994003 
z"/>
<path fill="#0A0A0A" opacity="1.000000" stroke="none" 
	d="
M285.000610,46.000809 
	C286.188965,45.214237 287.376709,44.426853 288.564453,43.639469 
	C288.804199,44.326721 289.043945,45.013969 289.283722,45.701221 
	C288.076630,45.826561 286.869537,45.951900 285.330627,46.037754 
	C284.998779,45.998268 285.000000,46.000000 285.000610,46.000809 
z"/>
<path fill="#0A0A0A" opacity="1.000000" stroke="none" 
	d="
M290.934875,42.122311 
	C291.400787,41.129692 291.938965,40.412567 292.477173,39.695446 
	C292.839813,40.541626 293.202423,41.387802 293.565063,42.233978 
	C292.712433,42.288586 291.859802,42.343193 290.934875,42.122311 
z"/>
<path fill="#0A0A0A" opacity="1.000000" stroke="none" 
	d="
M281.206635,62.372528 
	C281.275696,61.226803 281.451080,60.396564 281.626495,59.566322 
	C281.956451,59.583847 282.286438,59.601372 282.616394,59.618900 
	C282.755493,61.057583 282.894592,62.496265 283.147034,65.107773 
	C282.044464,63.653080 281.678711,63.170547 281.206635,62.372528 
z"/>
<path fill="#0A0A0A" opacity="1.000000" stroke="none" 
	d="
M305.076782,106.240463 
	C306.050293,105.304443 306.932709,104.643555 307.815155,103.982658 
	C308.123322,104.539986 308.431488,105.097313 308.739655,105.654640 
	C307.488373,105.941620 306.237061,106.228600 305.076782,106.240463 
z"/>
<path fill="#0C0C0C" opacity="1.000000" stroke="none" 
	d="
M391.119446,64.452660 
	C390.257599,64.787209 389.496277,64.849068 388.734985,64.910919 
	C388.848907,64.370903 388.962799,63.830883 389.076721,63.290867 
	C389.791168,63.587231 390.505585,63.883595 391.119446,64.452660 
z"/>
<path fill="#DEDEDE" opacity="1.000000" stroke="none" 
	d="
M314.978607,163.048157 
	C317.096039,162.170349 320.307251,162.752304 319.767212,163.646042 
	C317.822632,163.203674 316.400635,163.125916 314.978607,163.048157 
z"/>
<path fill="#0A0A0A" opacity="1.000000" stroke="none" 
	d="
M309.802643,82.696793 
	C309.185150,82.084145 308.884338,81.383095 308.583527,80.682053 
	C309.015289,80.563484 309.447052,80.444923 309.878784,80.326355 
	C309.958954,81.087036 310.039124,81.847717 309.802643,82.696793 
z"/>
<path fill="#070707" opacity="1.000000" stroke="none" 
	d="
M314.056763,155.058929 
	C313.607758,156.402161 313.158752,157.745377 312.709747,159.088593 
	C312.222839,158.856125 311.735931,158.623657 311.249023,158.391174 
	C311.937286,157.281265 312.625549,156.171341 313.661682,155.033600 
	C314.009552,155.005768 314.056763,155.058929 314.056763,155.058929 
z"/>
<path fill="#2F2F2F" opacity="1.000000" stroke="none" 
	d="
M235.816605,161.294708 
	C235.380173,160.404297 235.263916,159.526550 235.147659,158.648819 
	C235.707764,158.607361 236.267853,158.565903 236.827957,158.524445 
	C236.597565,159.452087 236.367172,160.379745 235.816605,161.294708 
z"/>
<path fill="#0C0C0C" opacity="1.000000" stroke="none" 
	d="
M400.001221,60.998871 
	C401.248993,61.497917 402.496796,61.996964 403.744568,62.496010 
	C403.503204,62.939518 403.261871,63.383022 403.020508,63.826530 
	C402.056915,63.098732 401.093323,62.370934 400.064880,61.321568 
	C400.000000,61.000000 400.001221,60.998871 400.001221,60.998871 
z"/>
<path fill="#0C0C0C" opacity="1.000000" stroke="none" 
	d="
M380.698669,60.171867 
	C380.304230,59.118469 380.196075,58.063755 380.087921,57.009041 
	C380.481323,57.023186 380.874725,57.037331 381.268127,57.051476 
	C381.173737,58.091167 381.079346,59.130856 380.698669,60.171867 
z"/>
<path fill="#0E0E0E" opacity="1.000000" stroke="none" 
	d="
M281.002441,95.997108 
	C279.999298,94.925217 278.996155,93.853317 278.006378,92.378098 
	C278.019745,91.974770 278.175415,91.841629 278.175415,91.841629 
	C279.026001,93.023903 279.876617,94.206169 280.863617,95.694214 
	C281.000000,96.000000 281.002441,95.997108 281.002441,95.997108 
z"/>
<path fill="#0A0A0A" opacity="1.000000" stroke="none" 
	d="
M297.436066,65.105026 
	C298.088745,64.935974 298.739410,65.000549 299.335907,65.215508 
	C299.423126,65.246941 299.252197,65.994789 299.200714,66.411148 
	C298.606018,66.069809 298.011292,65.728462 297.436066,65.105026 
z"/>
<path fill="#0C0C0C" opacity="1.000000" stroke="none" 
	d="
M396.433044,65.881172 
	C395.632843,65.652885 395.119476,65.374908 394.606140,65.096924 
	C394.906006,64.796570 395.205872,64.496208 395.505737,64.195847 
	C395.910461,64.741058 396.315155,65.286270 396.433044,65.881172 
z"/>
<path fill="#0C0C0C" opacity="1.000000" stroke="none" 
	d="
M396.851593,59.144997 
	C396.091400,59.415474 395.331207,59.685951 394.571014,59.956429 
	C394.503326,59.541069 394.435638,59.125706 394.367950,58.710342 
	C395.176422,58.574963 395.984894,58.439583 396.901245,58.644794 
	C397.009094,58.985386 396.851593,59.144989 396.851593,59.144997 
z"/>
<path fill="#6D6D6D" opacity="1.000000" stroke="none" 
	d="
M220.741241,165.775223 
	C220.952179,167.706100 220.952179,169.323349 220.952179,170.940613 
	C220.644913,170.943100 220.337631,170.945602 220.030365,170.948105 
	C220.197021,169.119263 220.363663,167.290436 220.741241,165.775223 
z"/>
<path fill="#0C0C0C" opacity="1.000000" stroke="none" 
	d="
M389.831238,43.873055 
	C389.655060,42.737946 389.576965,41.668667 389.498871,40.599392 
	C389.865631,40.585732 390.232361,40.572075 390.599121,40.558414 
	C390.599121,41.576897 390.599121,42.595383 390.361572,43.843254 
	C390.124054,44.072643 389.929291,43.938892 389.831238,43.873055 
z"/>
<path fill="#0C0C0C" opacity="1.000000" stroke="none" 
	d="
M408.186523,78.075485 
	C408.784882,78.390038 409.114075,78.685410 409.443268,78.980789 
	C408.788940,79.037064 408.134613,79.093338 407.480286,79.149620 
	C407.625977,78.785187 407.771637,78.420746 408.186523,78.075485 
z"/>
<path fill="#0C0C0C" opacity="1.000000" stroke="none" 
	d="
M386.881622,70.150940 
	C386.312927,69.518143 385.727325,68.898460 385.206635,68.228348 
	C385.163696,68.173096 385.561157,67.775688 385.753998,67.537262 
	C386.196960,68.101799 386.639923,68.666328 387.047852,69.621140 
	C387.012848,70.011421 386.881622,70.150940 386.881622,70.150940 
z"/>
<path fill="#0E0E0E" opacity="1.000000" stroke="none" 
	d="
M280.998779,96.001297 
	C281.592285,96.568542 282.187012,97.134491 282.781769,97.700439 
	C282.491455,97.983475 282.201172,98.266518 281.910858,98.549561 
	C281.601746,97.929108 281.292603,97.308647 280.992981,96.342651 
	C281.002441,95.997108 281.000000,96.000000 280.998779,96.001297 
z"/>
<path fill="#0C0C0C" opacity="1.000000" stroke="none" 
	d="
M398.001953,68.001846 
	C398.652832,67.402588 399.303680,66.803329 399.954529,66.204071 
	C400.138153,66.454170 400.321777,66.704269 400.505402,66.954369 
	C399.879272,67.296066 399.253174,67.637772 398.313538,67.989731 
	C398.000000,68.000000 398.001953,68.001839 398.001953,68.001846 
z"/>
<path fill="#0A0A0A" opacity="1.000000" stroke="none" 
	d="
M298.070862,76.918472 
	C298.916962,77.279213 299.689941,77.716698 300.462891,78.154182 
	C300.319275,78.407204 300.175659,78.660217 300.032043,78.913239 
	C299.356049,78.519630 298.680054,78.126022 297.924744,77.437630 
	C297.845459,77.142845 297.997711,76.995209 298.070862,76.918472 
z"/>
<path fill="#272727" opacity="1.000000" stroke="none" 
	d="
M314.968842,163.257477 
	C316.400635,163.125916 317.822632,163.203674 319.441284,163.679016 
	C319.369507,164.263184 319.101135,164.449753 318.273010,164.459351 
	C316.799896,164.150116 315.886536,164.017883 314.973145,163.885651 
	C314.973145,163.885651 314.959076,163.466797 314.968842,163.257477 
z"/>
<path fill="#0A0A0A" opacity="1.000000" stroke="none" 
	d="
M305.545227,81.451736 
	C305.461792,80.905495 305.555145,80.539459 305.648499,80.173416 
	C306.027374,80.716499 306.406250,81.259590 306.785126,81.802673 
	C306.430756,81.745766 306.076416,81.688850 305.545227,81.451736 
z"/>
<path fill="#1A1A1A" opacity="1.000000" stroke="none" 
	d="
M226.846161,46.883488 
	C227.215836,46.316895 227.699738,45.861904 228.183640,45.406914 
	C228.421524,45.778980 228.940781,46.308804 228.838959,46.490421 
	C228.624298,46.873299 228.084366,47.073814 227.420441,47.295597 
	C227.162964,47.242031 226.960388,46.995094 226.846161,46.883488 
z"/>
<path fill="#0E0E0E" opacity="1.000000" stroke="none" 
	d="
M280.236694,86.702744 
	C279.901001,87.209305 279.481689,87.487541 279.062378,87.765778 
	C278.992004,87.341667 278.921661,86.917557 278.851318,86.493439 
	C279.285248,86.487099 279.719147,86.480759 280.236694,86.702744 
z"/>
<path fill="#0E0E0E" opacity="1.000000" stroke="none" 
	d="
M287.613617,103.079292 
	C287.084381,102.841148 286.742401,102.417450 286.400452,101.993736 
	C286.616760,101.820442 286.833069,101.647163 287.049408,101.473877 
	C287.299896,101.947166 287.550385,102.420448 287.613617,103.079292 
z"/>
<path fill="#0E0E0E" opacity="1.000000" stroke="none" 
	d="
M288.556824,96.485001 
	C288.807495,96.973045 288.830963,97.367378 288.854431,97.761719 
	C288.422791,97.615555 287.991150,97.469391 287.559509,97.323242 
	C287.816223,97.012589 288.072906,96.701942 288.556824,96.485001 
z"/>
<path fill="#0C0C0C" opacity="1.000000" stroke="none" 
	d="
M397.085632,58.903465 
	C398.014191,59.362095 398.866150,59.902641 399.859680,60.721031 
	C400.001221,60.998871 400.000000,61.000000 399.999390,61.000610 
	C399.030609,60.591164 398.062439,60.181107 396.972931,59.458023 
	C396.851593,59.144989 397.009094,58.985386 397.085632,58.903465 
z"/>
<path fill="#0A0A0A" opacity="1.000000" stroke="none" 
	d="
M316.595215,83.334457 
	C316.748199,82.994202 317.047638,82.808510 317.347046,82.622826 
	C317.145233,82.911560 316.943451,83.200294 316.595215,83.334457 
z"/>
<path fill="#0E0E0E" opacity="1.000000" stroke="none" 
	d="
M196.667938,77.597450 
	C197.002625,77.747452 197.184906,78.041870 197.367203,78.336281 
	C197.083313,78.138138 196.799438,77.940002 196.667938,77.597450 
z"/>
<path fill="#0A0A0A" opacity="1.000000" stroke="none" 
	d="
M314.476715,74.959305 
	C314.820923,74.821587 315.161438,74.898499 315.501984,74.975410 
	C315.158997,75.041580 314.816040,75.107758 314.476715,74.959305 
z"/>
<path fill="#AEAEAE" opacity="1.000000" stroke="none" 
	d="
M319.027222,159.053131 
	C319.218414,158.417221 319.400391,158.090973 319.582397,157.764725 
	C319.590881,158.616821 319.599365,159.468918 319.607849,160.321014 
	C319.411224,160.001602 319.214630,159.682190 319.027222,159.053131 
z"/>
<path fill="#DEDEDE" opacity="1.000000" stroke="none" 
	d="
M299.245087,165.044861 
	C298.501038,164.889175 298.100250,164.738510 296.735413,164.225525 
	C298.730652,164.225525 299.728180,164.225525 301.565826,164.225525 
	C300.376587,164.721283 299.982452,164.885590 299.245087,165.044861 
z"/>
<path fill="#DEDEDE" opacity="1.000000" stroke="none" 
	d="
M314.757446,164.098389 
	C315.886536,164.017883 316.799896,164.150116 317.809143,164.618042 
	C316.783875,164.739517 315.662811,164.525314 314.757446,164.098389 
z"/>
<path fill="#0E0E0E" opacity="1.000000" stroke="none" 
	d="
M188.968399,74.014999 
	C188.699478,74.422493 188.424698,74.584785 188.149902,74.747078 
	C188.147903,74.276283 188.145889,73.805489 188.143890,73.334694 
	C188.416763,73.479729 188.689636,73.624763 188.968399,74.014999 
z"/>
<path fill="#DEDEDE" opacity="1.000000" stroke="none" 
	d="
M320.042480,167.886353 
	C319.881042,168.655014 319.729584,169.068954 319.213776,170.478745 
	C319.213776,168.413910 319.213776,167.381317 319.213776,165.419800 
	C319.727448,166.713318 319.889923,167.122482 320.042480,167.886353 
z"/>
<path fill="#0C0C0C" opacity="1.000000" stroke="none" 
	d="
M406.052979,37.441982 
	C406.264679,37.789474 406.261688,38.136833 406.233002,38.482059 
	C406.232117,38.492714 405.964020,38.481140 405.820496,38.479931 
	C405.825195,38.133801 405.829865,37.787666 406.052979,37.441982 
z"/>
<path fill="#0C0C0C" opacity="1.000000" stroke="none" 
	d="
M409.578613,67.334061 
	C409.682922,66.934509 409.934723,66.690331 410.202667,66.465431 
	C410.209961,66.459328 410.391998,66.661423 410.492523,66.766434 
	C410.237823,67.008308 409.983093,67.250183 409.578613,67.334061 
z"/>
<path fill="#0A0A0A" opacity="1.000000" stroke="none" 
	d="
M285.916107,68.082886 
	C285.441772,67.761124 284.967438,67.439369 284.493103,67.117615 
	C284.667145,66.919243 284.841187,66.720863 285.015228,66.522484 
	C285.326294,66.822731 285.637360,67.122986 285.967529,67.720428 
	C285.986603,68.017609 285.916107,68.082886 285.916107,68.082886 
z"/>
<path fill="#0C0C0C" opacity="1.000000" stroke="none" 
	d="
M397.999084,67.998993 
	C397.708801,68.479836 397.419434,68.961678 397.130066,69.443527 
	C396.936005,69.277962 396.741943,69.112411 396.547913,68.946869 
	C396.855103,68.661751 397.162292,68.376617 397.735718,68.046661 
	C398.001953,68.001839 398.000000,68.000000 397.999084,67.998993 
z"/>
<path fill="#0C0C0C" opacity="1.000000" stroke="none" 
	d="
M389.082550,52.905548 
	C389.633118,53.178864 390.107300,53.533787 390.581482,53.888706 
	C390.405182,54.098835 390.103271,54.508541 390.071686,54.488682 
	C389.696228,54.252407 389.361023,53.952145 388.931458,53.406742 
	C388.847656,53.144825 389.006165,52.987156 389.082550,52.905548 
z"/>
<path fill="#AEAEAE" opacity="1.000000" stroke="none" 
	d="
M241.306427,155.693237 
	C240.527847,155.812012 239.990997,155.750763 239.454163,155.689514 
	C239.489105,155.483414 239.524063,155.277298 239.559006,155.071198 
	C240.222061,155.218536 240.885101,155.365891 241.306427,155.693237 
z"/>
<path fill="#070707" opacity="1.000000" stroke="none" 
	d="
M313.988251,154.977295 
	C314.548309,154.648544 315.129669,154.348267 315.711029,154.047974 
	C315.795227,154.261414 315.879425,154.474854 315.963623,154.688293 
	C315.508057,154.802063 315.052460,154.915833 314.326813,155.044266 
	C314.056763,155.058929 314.009552,155.005768 313.988251,154.977295 
z"/>
<path fill="#6D6D6D" opacity="1.000000" stroke="none" 
	d="
M295.324188,159.647491 
	C295.646210,160.080063 295.762604,160.722046 295.879028,161.364044 
	C295.677094,161.392838 295.475189,161.421646 295.273285,161.450439 
	C295.221710,160.919266 295.170135,160.388092 295.324188,159.647491 
z"/>
<path fill="#0E0E0E" opacity="1.000000" stroke="none" 
	d="
M196.135208,64.262817 
	C196.393188,64.095451 196.615280,64.134224 196.837372,64.173004 
	C196.764069,64.459541 196.690781,64.746071 196.617477,65.032608 
	C196.444748,64.844734 196.272034,64.656853 196.135208,64.262817 
z"/>
<path fill="#0C0C0C" opacity="1.000000" stroke="none" 
	d="
M394.925354,40.097622 
	C394.789276,39.565411 394.653168,39.033199 394.517090,38.500988 
	C394.795471,38.519516 395.073883,38.538040 395.352264,38.556568 
	C395.315979,38.862812 395.279694,39.169056 395.123260,39.742332 
	C395.003143,40.009369 394.925354,40.097622 394.925354,40.097622 
z"/>
<path fill="#0C0C0C" opacity="1.000000" stroke="none" 
	d="
M383.619568,49.788910 
	C383.652252,49.818985 383.586884,49.758831 383.619568,49.788910 
z"/>
<path fill="#0C0C0C" opacity="1.000000" stroke="none" 
	d="
M384.425690,54.792206 
	C384.462006,54.770519 384.389374,54.813896 384.425690,54.792206 
z"/>
<path fill="#0E0E0E" opacity="1.000000" stroke="none" 
	d="
M284.597900,101.283188 
	C284.419434,101.147476 284.390533,100.917725 284.361633,100.687973 
	C284.490234,100.855034 284.618835,101.022095 284.597900,101.283188 
z"/>
<path fill="#1A1A1A" opacity="1.000000" stroke="none" 
	d="
M221.000916,59.000999 
	C220.873474,59.382629 220.745117,59.763256 220.616745,60.143883 
	C220.608047,59.822132 220.599350,59.500378 220.794403,59.088642 
	C220.998169,58.998657 221.000000,59.000000 221.000916,59.000999 
z"/>
<path fill="#0E0E0E" opacity="1.000000" stroke="none" 
	d="
M276.395630,87.721970 
	C276.560852,87.850243 276.585663,88.069550 276.610474,88.288849 
	C276.492035,88.130226 276.373627,87.971611 276.395630,87.721970 
z"/>
<path fill="#0E0E0E" opacity="1.000000" stroke="none" 
	d="
M285.414612,86.776779 
	C285.454529,86.752281 285.374664,86.801262 285.414612,86.776779 
z"/>
<path fill="#0C0C0C" opacity="1.000000" stroke="none" 
	d="
M382.393738,64.717957 
	C382.564209,64.849319 382.590485,65.073807 382.616791,65.298294 
	C382.494385,65.135880 382.371948,64.973473 382.393738,64.717957 
z"/>
<path fill="#0E0E0E" opacity="1.000000" stroke="none" 
	d="
M277.940125,92.039230 
	C277.760284,91.628654 277.660034,91.153610 277.559784,90.678566 
	C277.727814,90.916336 277.895813,91.154106 278.119629,91.616753 
	C278.175415,91.841629 278.019745,91.974770 277.940125,92.039230 
z"/>
<path fill="#0C0C0C" opacity="1.000000" stroke="none" 
	d="
M407.000641,76.001007 
	C406.763336,76.217705 406.538971,76.452850 406.277557,76.634819 
	C406.215576,76.677963 406.029449,76.542732 405.900421,76.489563 
	C406.120697,76.336456 406.340973,76.183342 406.779419,76.014053 
	C406.997559,75.997864 407.000000,76.000000 407.000641,76.001007 
z"/>
<path fill="#0A0A0A" opacity="1.000000" stroke="none" 
	d="
M289.787476,72.349350 
	C290.018280,72.364883 290.145599,72.496918 290.272949,72.628952 
	C290.076660,72.574585 289.880341,72.520218 289.787476,72.349350 
z"/>
<path fill="#0A0A0A" opacity="1.000000" stroke="none" 
	d="
M293.364563,74.257629 
	C293.377899,74.032814 293.503326,73.909561 293.628754,73.786316 
	C293.578064,73.977280 293.527344,74.168236 293.364563,74.257629 
z"/>
<path fill="#0A0A0A" opacity="1.000000" stroke="none" 
	d="
M286.023987,67.987480 
	C286.212311,68.335472 286.363220,68.713600 286.514160,69.091721 
	C286.339478,68.893967 286.164795,68.696228 285.953094,68.290680 
	C285.916107,68.082886 285.986603,68.017609 286.023987,67.987480 
z"/>
<path fill="#0C0C0C" opacity="1.000000" stroke="none" 
	d="
M396.443756,76.537880 
	C396.405182,76.475616 396.482330,76.600143 396.443756,76.537880 
z"/>
<path fill="#1A1A1A" opacity="1.000000" stroke="none" 
	d="
M212.409668,81.398636 
	C212.525421,81.308220 212.585449,81.634003 212.585449,81.634003 
	C212.585449,81.634003 212.293915,81.489059 212.409668,81.398636 
z"/>
<path fill="#0A0A0A" opacity="1.000000" stroke="none" 
	d="
M295.526611,38.541794 
	C295.478668,38.568764 295.574554,38.514828 295.526611,38.541794 
z"/>
<path fill="#0C0C0C" opacity="1.000000" stroke="none" 
	d="
M387.084198,69.947525 
	C387.242767,70.097267 387.329987,70.310898 387.417236,70.524521 
	C387.289429,70.501534 387.161591,70.478539 386.957703,70.303238 
	C386.881622,70.150940 387.012848,70.011421 387.084198,69.947525 
z"/>
<path fill="#0A0A0A" opacity="1.000000" stroke="none" 
	d="
M296.547089,40.468666 
	C296.578400,40.522057 296.515778,40.415272 296.547089,40.468666 
z"/>
<path fill="#0C0C0C" opacity="1.000000" stroke="none" 
	d="
M395.046570,39.969711 
	C395.175385,40.088493 395.260742,40.246937 395.346130,40.405373 
	C395.256622,40.375023 395.167145,40.344681 395.001495,40.205978 
	C394.925354,40.097622 395.003143,40.009369 395.046570,39.969711 
z"/>
<path fill="#0C0C0C" opacity="1.000000" stroke="none" 
	d="
M393.536346,41.552383 
	C393.476379,41.589146 393.596313,41.515617 393.536346,41.552383 
z"/>
<path fill="#070707" opacity="1.000000" stroke="none" 
	d="
M313.462341,161.445374 
	C313.524048,161.407211 313.400604,161.483551 313.462341,161.445374 
z"/>
<path fill="#0C0C0C" opacity="1.000000" stroke="none" 
	d="
M401.530823,72.482941 
	C401.548828,72.518471 401.512787,72.447411 401.530823,72.482941 
z"/>
<path fill="#0C0C0C" opacity="1.000000" stroke="none" 
	d="
M381.429199,48.552155 
	C381.378387,48.476006 381.581116,48.450066 381.581116,48.450066 
	C381.581116,48.450066 381.479980,48.628304 381.429199,48.552155 
z"/>
<path fill="#0A0A0A" opacity="1.000000" stroke="none" 
	d="
M295.483185,70.470047 
	C295.518372,70.452301 295.447998,70.487793 295.483185,70.470047 
z"/>
<path fill="#0C0C0C" opacity="1.000000" stroke="none" 
	d="
M412.534546,67.552162 
	C412.476685,67.587074 412.592377,67.517250 412.534546,67.552162 
z"/>
<path fill="#0A0A0A" opacity="1.000000" stroke="none" 
	d="
M315.993805,70.004555 
	C315.673187,69.899933 315.399292,69.726509 315.076385,69.242249 
	C314.986633,68.995728 315.085907,68.885887 315.085907,68.885887 
	C315.374115,69.051491 315.609863,69.272949 315.900970,69.769333 
	C316.008789,69.988403 315.999817,70.000076 315.993805,70.004555 
z"/>
<path fill="#0C0C0C" opacity="1.000000" stroke="none" 
	d="
M394.552429,75.570648 
	C394.476562,75.621117 394.450745,75.419434 394.450745,75.419434 
	C394.450745,75.419434 394.628296,75.520180 394.552429,75.570648 
z"/>
<path fill="#0E0E0E" opacity="1.000000" stroke="none" 
	d="
M294.528381,105.541702 
	C294.478241,105.570488 294.578522,105.512924 294.528381,105.541702 
z"/>
<path fill="#0C0C0C" opacity="1.000000" stroke="none" 
	d="
M407.559387,82.452461 
	C407.599976,82.517326 407.518829,82.387596 407.559387,82.452461 
z"/>
<path fill="#0A0A0A" opacity="1.000000" stroke="none" 
	d="
M287.517273,57.529564 
	C287.481476,57.547585 287.553040,57.511543 287.517273,57.529564 
z"/>
<path fill="#0C0C0C" opacity="1.000000" stroke="none" 
	d="
M411.462341,80.524323 
	C411.439819,80.482437 411.484894,80.566208 411.462341,80.524323 
z"/>
<path fill="#0A0A0A" opacity="1.000000" stroke="none" 
	d="
M295.435577,57.542477 
	C295.392609,57.475731 295.478546,57.609222 295.435577,57.542477 
z"/>
<path fill="#0C0C0C" opacity="1.000000" stroke="none" 
	d="
M383.482422,57.472099 
	C383.519043,57.453499 383.445801,57.490704 383.482422,57.472099 
z"/>
<path fill="#0A0A0A" opacity="1.000000" stroke="none" 
	d="
M299.467072,69.519302 
	C299.447052,69.480484 299.487091,69.558128 299.467072,69.519302 
z"/>
<path fill="#0A0A0A" opacity="1.000000" stroke="none" 
	d="
M290.516785,60.526413 
	C290.481537,60.544044 290.552063,60.508781 290.516785,60.526413 
z"/>
<path fill="#1A1A1A" opacity="1.000000" stroke="none" 
	d="
M219.537994,62.555553 
	C219.477570,62.592720 219.598404,62.518387 219.537994,62.555553 
z"/>
<path fill="#1A1A1A" opacity="1.000000" stroke="none" 
	d="
M221.420593,62.377102 
	C221.526947,62.292881 221.582520,62.594643 221.582520,62.594643 
	C221.582520,62.594643 221.314255,62.461323 221.420593,62.377102 
z"/>
<path fill="#0C0C0C" opacity="1.000000" stroke="none" 
	d="
M394.525940,62.484715 
	C394.542023,62.517853 394.509888,62.451576 394.525940,62.484715 
z"/>
<path fill="#0C0C0C" opacity="1.000000" stroke="none" 
	d="
M417.916809,71.055481 
	C417.756683,70.917717 417.668060,70.714172 417.579468,70.510620 
	C417.697021,70.535706 417.814606,70.560783 418.025787,70.716064 
	C418.119415,70.846260 417.988342,70.989708 417.916809,71.055481 
z"/>
<path fill="#0A0A0A" opacity="1.000000" stroke="none" 
	d="
M305.516602,78.528076 
	C305.481415,78.545555 305.551758,78.510605 305.516602,78.528076 
z"/>
<path fill="#0A0A0A" opacity="1.000000" stroke="none" 
	d="
M314.931335,69.044907 
	C314.792725,68.920998 314.709412,68.747902 314.626129,68.574814 
	C314.724243,68.603172 314.822357,68.631531 315.003174,68.772888 
	C315.085907,68.885887 314.986633,68.995728 314.931335,69.044907 
z"/>
<path fill="#0A0A0A" opacity="1.000000" stroke="none" 
	d="
M294.528107,68.484787 
	C294.545563,68.520142 294.510651,68.449440 294.528107,68.484787 
z"/>
<path fill="#000000" opacity="1.000000" stroke="none" 
	d="
M351.003082,94.003792 
	C350.857086,94.132095 350.707947,94.256477 350.558807,94.380867 
	C350.602356,94.280128 350.645905,94.179375 350.840393,94.035782 
	C350.991302,93.992943 350.999908,93.999870 351.003082,94.003792 
z"/>
</svg>